HIERARCHY
ROOT joint_Root
{
	OFFSET 0.0 0.0 0.0
	CHANNELS 6 Xposition Yposition Zposition Zrotation Xrotation Yrotation 
	JOINT Hips
	{
		OFFSET -0.726466 93.3139 -2.00062
		CHANNELS 6 Xposition Yposition Zposition Zrotation Xrotation Yrotation 
		JOINT Spine
		{
			OFFSET 15.7357 0.0 0.0
			CHANNELS 6 Xposition Yposition Zposition Zrotation Xrotation Yrotation 
			JOINT Chest
			{
				OFFSET 8.98455 -0.406207 0.0
				CHANNELS 6 Xposition Yposition Zposition Zrotation Xrotation Yrotation 
				JOINT Neck
				{
					OFFSET 16.3773 0.0 0.0
					CHANNELS 6 Xposition Yposition Zposition Zrotation Xrotation Yrotation 
					JOINT Head
					{
						OFFSET 6.45672 0.0 0.0
						CHANNELS 6 Xposition Yposition Zposition Zrotation Xrotation Yrotation 
						End Site
						{
							OFFSET 0.0 0.0 0.0
						}
					}
				}
				JOINT Shoulder_L
				{
					OFFSET 12.9942 -0.242716 4.98039
					CHANNELS 6 Xposition Yposition Zposition Zrotation Xrotation Yrotation 
					JOINT UpperArm_L
					{
						OFFSET 5.34809 0.0 0.0
						CHANNELS 6 Xposition Yposition Zposition Zrotation Xrotation Yrotation 
						JOINT LowerArm_L
						{
							OFFSET 24.3286 1.87007e-05 0.0
							CHANNELS 6 Xposition Yposition Zposition Zrotation Xrotation Yrotation 
							JOINT Hand_L
							{
								OFFSET 22.2916 0.0 0.0
								CHANNELS 6 Xposition Yposition Zposition Zrotation Xrotation Yrotation 
								End Site
								{
									OFFSET 0.0 0.0 0.0
								}
							}
						}
					}
				}
				JOINT Shoulder_R
				{
					OFFSET 12.9945 -0.242716 -4.98039
					CHANNELS 6 Xposition Yposition Zposition Zrotation Xrotation Yrotation 
					JOINT UpperArm_R
					{
						OFFSET -5.34813 0.0 0.0
						CHANNELS 6 Xposition Yposition Zposition Zrotation Xrotation Yrotation 
						JOINT LowerArm_R
						{
							OFFSET -24.3289 0.000322201 0.0
							CHANNELS 6 Xposition Yposition Zposition Zrotation Xrotation Yrotation 
							JOINT Hand_R
							{
								OFFSET -22.2915 -0.000108084 0.0
								CHANNELS 6 Xposition Yposition Zposition Zrotation Xrotation Yrotation 
								End Site
								{
									OFFSET 0.0 0.0 0.0
								}
							}
						}
					}
				}
			}
		}
		JOINT UpperLeg_L
		{
			OFFSET -2.19248 -6.46944 0.0
			CHANNELS 6 Xposition Yposition Zposition Zrotation Xrotation Yrotation 
			JOINT LowerLeg_L
			{
				OFFSET 39.0811 0.0 -1.23785e-05
				CHANNELS 6 Xposition Yposition Zposition Zrotation Xrotation Yrotation 
				JOINT Foot_L
				{
					OFFSET 40.9854 0.0 -1.26872e-05
					CHANNELS 6 Xposition Yposition Zposition Zrotation Xrotation Yrotation 
					JOINT Toes_L
					{
						OFFSET 11.7543 0.0 0.0
						CHANNELS 6 Xposition Yposition Zposition Zrotation Xrotation Yrotation 
						End Site
						{
							OFFSET 0.0 0.0 0.0
						}
					}
				}
			}
		}
		JOINT UpperLeg_R
		{
			OFFSET -2.19251 6.46944 0.0
			CHANNELS 6 Xposition Yposition Zposition Zrotation Xrotation Yrotation 
			JOINT LowerLeg_R
			{
				OFFSET -39.0811 -0.00228153 -0.0401928
				CHANNELS 6 Xposition Yposition Zposition Zrotation Xrotation Yrotation 
				JOINT Foot_R
				{
					OFFSET -40.9854 0.0 0.0
					CHANNELS 6 Xposition Yposition Zposition Zrotation Xrotation Yrotation 
					JOINT Toes_R
					{
						OFFSET -11.7543 0.0 0.0
						CHANNELS 6 Xposition Yposition Zposition Zrotation Xrotation Yrotation 
						End Site
						{
							OFFSET 0.0 0.0 0.0
						}
					}
				}
			}
		}
	}
}
MOTION
Frames:	4
Frame Time:	0.0333333
0.000000 0.000000 0.000000 0.000000 0.000000 -0.000000 -2.183940 92.016400 -2.779140 87.797900 -2.258950 3.975920 15.735700 0.000005 -0.000001 64.629600 85.750000 -61.756400 8.984550 -0.406207 -0.000000 0.018198 -3.835150 5.745120 16.377300 -0.000001 -0.000001 4.013580 -0.166898 -1.167260 6.456720 -0.000001 -0.000000 1.677860 1.286780 16.944800 12.994200 -0.242716 4.980390 -84.444300 -11.100500 -63.196100 5.348090 -0.000007 -0.000001 -62.324300 -53.487300 -101.679000 24.328600 0.000019 0.000005 7.797690 4.793610 -58.606900 22.291600 -0.000001 0.000005 21.375800 5.640250 -14.146200 12.994500 -0.242716 -4.980390 89.535400 1.240900 -69.471500 -5.348130 -0.000001 -0.000004 -35.875200 80.368400 -9.932150 -24.328900 0.000322 -0.000009 21.655000 2.005560 -84.963700 -22.291500 -0.000108 -0.000004 44.073000 5.681720 -21.708500 -2.192480 -6.469440 -0.000000 -167.303000 -16.071100 -1.920290 39.081100 -0.000007 -0.000012 -0.165602 0.449552 20.222500 40.985400 -0.000006 -0.000013 -7.547390 2.959820 -61.824900 11.754300 -0.000000 0.000003 -0.000084 -0.000883 -16.611600 -2.192510 6.469440 -0.000001 175.001000 19.113000 178.103000 -39.081100 -0.002282 -0.040193 -0.090410 0.249043 20.624500 -40.985400 0.000008 0.000006 -3.923270 3.386100 -62.954500 -11.754300 -0.000006 -0.000006 -0.005973 -0.070588 -19.445900
0.000000 0.000000 0.000000 0.000000 0.000000 -0.000000 -2.196180 92.022600 -2.798870 87.761000 -2.282530 3.960860 15.735700 0.000005 -0.000001 64.656300 85.751600 -61.770700 8.984550 -0.406207 -0.000000 0.017515 -3.831120 5.769840 16.377300 -0.000001 -0.000001 4.023840 -0.149519 -1.167640 6.456720 -0.000001 -0.000000 1.669810 1.362220 16.905200 12.994200 -0.242716 4.980390 -84.446200 -11.119300 -63.242700 5.348090 -0.000007 -0.000001 -62.506800 -53.471900 -101.729000 24.328600 0.000019 0.000005 7.761750 4.743630 -58.753900 22.291600 -0.000001 0.000005 21.465500 5.640320 -14.152700 12.994500 -0.242716 -4.980390 89.518000 1.285330 -69.443200 -5.348130 -0.000001 -0.000004 -35.976300 80.326700 -9.764530 -24.328900 0.000322 -0.000009 21.661400 1.980840 -85.027000 -22.291500 -0.000108 -0.000004 43.974000 5.681730 -21.701700 -2.192480 -6.469440 -0.000000 -167.246000 -16.128800 -1.920520 39.081100 -0.000007 -0.000012 -0.166675 0.453410 20.183800 40.985400 -0.000006 -0.000013 -7.555250 3.005510 -61.785200 11.754300 -0.000000 0.000003 -0.000071 -0.000768 -16.607200 -2.192510 6.469440 -0.000001 175.052000 19.096400 178.105000 -39.081100 -0.002282 -0.040193 -0.092703 0.256066 20.555900 -40.985400 0.000008 0.000006 -3.917190 3.380070 -62.907700 -11.754300 -0.000006 -0.000006 -0.005720 -0.068266 -19.351200
0.000000 0.000000 0.000000 0.000000 0.000000 -0.000000 -2.206310 92.010900 -2.802440 87.757900 -2.265460 3.903480 15.735700 0.000005 -0.000001 64.348900 85.750200 -61.459900 8.984550 -0.406207 -0.000000 0.001633 -3.874100 5.776300 16.377300 -0.000001 -0.000001 4.055960 -0.152436 -1.131650 6.456720 -0.000001 -0.000000 1.658000 1.439770 16.852000 12.994200 -0.242716 4.980390 -84.432200 -11.134700 -63.215600 5.348090 -0.000007 -0.000001 -62.708000 -53.424600 -101.861000 24.328600 0.000019 0.000005 7.738120 4.721200 -58.795700 22.291600 -0.000001 0.000005 21.501900 5.640390 -14.158000 12.994500 -0.242716 -4.980390 89.507200 1.310850 -69.395500 -5.348130 -0.000001 -0.000004 -35.940800 80.240200 -9.798980 -24.328900 0.000322 -0.000009 21.640600 1.977430 -85.030300 -22.291500 -0.000108 -0.000004 43.919200 5.681680 -21.746300 -2.192480 -6.469440 -0.000000 -167.263000 -16.089200 -2.037270 39.081100 -0.000007 -0.000012 -0.168198 0.455213 20.279100 40.985400 -0.000006 -0.000013 -7.564050 2.965840 -61.830600 11.754300 -0.000000 0.000003 -0.000081 -0.000857 -16.610600 -2.192510 6.469440 -0.000001 175.100000 19.089600 177.986000 -39.081100 -0.002282 -0.040193 -0.090104 0.247672 20.667100 -40.985400 0.000008 0.000006 -3.905930 3.324900 -62.967500 -11.754300 -0.000006 -0.000006 -0.006268 -0.073254 -19.554700
0.000000 0.000000 0.000000 0.000000 0.000000 -0.000000 -2.218920 92.018400 -2.805890 87.769200 -2.231010 3.938950 15.735700 0.000005 -0.000001 64.274100 85.735000 -61.385000 8.984550 -0.406207 -0.000000 0.024675 -3.896620 5.777200 16.377300 -0.000001 -0.000001 4.131420 -0.154378 -1.142840 6.456720 -0.000001 -0.000000 1.683570 1.465430 16.898800 12.994200 -0.242716 4.980390 -84.433900 -11.140900 -63.235500 5.348090 -0.000007 -0.000001 -62.741300 -53.347900 -101.908000 24.328600 0.000019 0.000005 7.747890 4.732260 -58.768800 22.291600 -0.000001 0.000005 21.591200 5.641330 -14.237500 12.994500 -0.242716 -4.980390 89.486600 1.362210 -69.347100 -5.348130 -0.000001 -0.000004 -36.148000 80.088300 -9.531110 -24.328900 0.000322 -0.000009 21.673700 1.972220 -85.051700 -22.291500 -0.000108 -0.000004 43.667000 5.681510 -21.887900 -2.192480 -6.469440 -0.000000 -167.255000 -16.105500 -1.979350 39.081100 -0.000007 -0.000012 -0.167165 0.454294 20.202100 40.985400 -0.000006 -0.000013 -7.568190 2.988630 -61.771700 11.754300 -0.000000 0.000003 -0.000090 -0.000939 -16.613700 -2.192510 6.469440 -0.000001 175.082000 19.065600 178.054000 -39.081100 -0.002282 -0.040193 -0.090617 0.249722 20.614700 -40.985400 0.000008 0.000006 -3.910000 3.299700 -62.950800 -11.754300 -0.000006 -0.000006 -0.005958 -0.070455 -19.440500
